<?xml version="1.0" standalone="no"?>
<!DOCTYPE svg PUBLIC "-//W3C//DTD SVG 20010904//EN"
 "http://www.w3.org/TR/2001/REC-SVG-20010904/DTD/svg10.dtd">
<svg version="1.0" xmlns="http://www.w3.org/2000/svg"
 width="700.000000pt" height="700.000000pt" viewBox="0 0 700.000000 700.000000"
 preserveAspectRatio="xMidYMid meet">
<metadata>
Created by potrace 1.14, written by Peter Selinger 2001-2017
</metadata>
<g transform="translate(0.000000,700.000000) scale(0.100000,-0.100000)"
fill="#000000" stroke="none">
<path d="M5137 5682 l-277 -277 0 -135 0 -134 -272 -276 c-150 -151 -276 -276
-279 -278 -4 -2 -38 17 -75 41 -312 201 -688 265 -1012 171 -215 -62 -361
-151 -532 -323 -124 -126 -193 -218 -265 -357 -71 -136 -54 -128 -235 -120
-323 14 -512 -56 -725 -269 -203 -202 -322 -418 -396 -715 -21 -85 -23 -118
-23 -310 0 -184 3 -229 22 -317 147 -673 645 -1170 1317 -1313 155 -33 405
-38 560 -12 425 73 815 334 965 647 78 163 85 199 85 432 0 236 -8 217 120
284 167 87 295 185 416 321 92 103 145 180 199 293 174 363 137 826 -95 1181
l-57 87 282 282 281 282 132 -5 132 -4 280 281 280 281 -270 270 c-148 148
-272 270 -275 270 -3 0 -130 -125 -283 -278z m-1389 -1247 c92 -24 262 -101
269 -122 2 -6 -121 -139 -273 -295 -153 -156 -310 -317 -350 -358 l-73 -75
129 -132 c71 -73 133 -133 138 -133 5 0 167 160 361 355 193 195 355 355 360
355 15 0 98 -179 122 -260 14 -52 23 -116 26 -205 5 -112 2 -143 -16 -215 -24
-95 -64 -187 -112 -257 -88 -127 -268 -283 -397 -344 -88 -42 -182 -109 -221
-158 -17 -21 -46 -70 -63 -107 -26 -57 -33 -84 -36 -156 -3 -48 1 -123 7 -166
32 -216 -64 -394 -293 -546 -406 -271 -910 -272 -1321 -5 -100 64 -304 267
-372 369 -152 227 -223 457 -223 721 0 137 16 246 54 355 67 196 210 402 340
487 116 77 213 93 431 73 211 -20 367 68 478 267 25 45 60 109 78 142 48 85
243 280 335 333 83 48 201 90 288 102 88 12 227 2 334 -25z"/>
<path d="M2709 3386 c-159 -34 -303 -143 -373 -286 -38 -78 -66 -186 -66 -255
0 -69 28 -177 66 -255 72 -146 241 -276 402 -309 343 -71 662 187 662 536 0
162 -52 286 -169 403 -142 141 -338 204 -522 166z m186 -385 c47 -22 99 -74
114 -114 26 -69 3 -161 -50 -199 -104 -77 -267 -11 -298 119 -36 151 94 259
234 194z"/>
</g>
</svg>
