<?xml version="1.0" standalone="no"?>
<!DOCTYPE svg PUBLIC "-//W3C//DTD SVG 20010904//EN"
 "http://www.w3.org/TR/2001/REC-SVG-20010904/DTD/svg10.dtd">
<svg version="1.0" xmlns="http://www.w3.org/2000/svg"
 width="700.000000pt" height="700.000000pt" viewBox="0 0 700.000000 700.000000"
 preserveAspectRatio="xMidYMid meet">
<metadata>
Created by potrace 1.14, written by Peter Selinger 2001-2017
</metadata>
<g transform="translate(0.000000,700.000000) scale(0.100000,-0.100000)"
fill="#000000" stroke="none">
<path d="M5137 5682 l-277 -277 0 -130 0 -130 -278 -284 -277 -283 -70 47
c-310 209 -719 271 -1060 160 -309 -101 -594 -355 -754 -672 -62 -124 -49
-118 -285 -118 -210 0 -231 -4 -367 -54 -174 -65 -351 -223 -496 -443 -337
-511 -319 -1173 48 -1724 81 -122 275 -324 393 -411 251 -185 540 -293 862
-324 422 -40 860 119 1163 422 204 204 288 442 260 736 -15 152 -14 153 118
221 134 69 230 139 346 251 185 179 288 350 348 578 30 112 37 364 15 493 -30
170 -105 357 -196 492 -22 32 -40 61 -40 65 0 5 125 133 278 286 l277 277 130
0 130 0 278 278 c152 152 277 282 277 287 0 13 -522 535 -535 535 -6 0 -135
-125 -288 -278z m-1392 -1250 c90 -25 178 -61 233 -96 l43 -27 -309 -317
c-171 -174 -331 -337 -356 -362 l-46 -44 137 -138 138 -138 361 361 362 362
27 -48 c39 -65 78 -166 101 -255 25 -101 26 -299 1 -390 -67 -245 -271 -474
-539 -605 -213 -103 -322 -299 -290 -520 22 -153 11 -249 -44 -356 -95 -189
-429 -387 -722 -429 -131 -19 -355 -8 -475 23 -127 34 -255 91 -364 163 -106
70 -287 248 -360 354 -342 500 -301 1138 96 1513 120 113 213 144 389 132 165
-12 227 -9 302 14 129 40 230 136 316 306 65 125 132 213 233 303 134 120 235
176 376 208 85 19 298 12 390 -14z"/>
<path d="M2686 3384 c-193 -47 -355 -210 -401 -406 -71 -303 119 -614 424
-693 72 -18 205 -21 276 -5 174 39 333 187 396 370 31 91 32 237 2 335 -74
239 -318 416 -568 414 -38 0 -96 -7 -129 -15z m229 -398 c66 -39 100 -95 99
-165 0 -77 -23 -117 -81 -143 -124 -55 -260 23 -271 156 -12 152 118 231 253
152z"/>
</g>
</svg>
